<?xml version="1.0" standalone="no"?>
<!DOCTYPE svg PUBLIC "-//W3C//DTD SVG 20010904//EN"
 "http://www.w3.org/TR/2001/REC-SVG-20010904/DTD/svg10.dtd">
<svg version="1.0" xmlns="http://www.w3.org/2000/svg"
 width="250.000000pt" height="250.000000pt" viewBox="0 0 250.000000 250.000000"
 preserveAspectRatio="xMidYMid meet">
<metadata>
Created by potrace 1.11, written by Peter Selinger 2001-2013
</metadata>
<g transform="translate(0.000000,250.000000) scale(0.100000,-0.100000)"
fill="#000000" stroke="none">
<path d="M1361 2328 c-71 -20 -142 -86 -170 -159 -7 -20 -5 -33 9 -57 30 -50
38 -47 38 16 -1 109 68 185 168 185 92 0 144 -83 103 -164 -29 -58 -67 -87
-364 -282 -71 -47 -151 -106 -178 -131 -26 -25 -50 -46 -53 -46 -3 0 -4 113
-2 251 l3 251 28 24 c16 14 41 24 58 24 19 0 29 4 27 12 -5 15 -381 18 -387 3
-2 -6 17 -13 44 -17 54 -8 71 -21 84 -64 14 -50 6 -1053 -9 -1092 -14 -36 -36
-52 -75 -52 -17 0 -25 -5 -23 -12 6 -18 390 -17 396 0 2 8 -8 12 -30 12 -99 1
-109 21 -115 259 -5 175 -4 189 15 228 44 86 136 157 355 274 243 129 327 222
314 345 -14 139 -120 225 -236 192z"/>
<path d="M1097 1555 c-29 -17 -51 -35 -51 -39 2 -12 101 -120 249 -274 134
-138 220 -207 284 -224 36 -11 256 -19 278 -10 22 8 3 22 -30 22 -44 1 -136
40 -189 81 -24 18 -143 132 -266 254 l-223 221 -52 -31z"/>
<path d="M830 721 c-84 -17 -148 -104 -136 -188 8 -57 29 -93 74 -123 51 -36
153 -36 205 0 97 66 108 215 20 278 -27 19 -97 43 -118 41 -5 -1 -26 -4 -45
-8z m100 -29 c45 -22 70 -68 74 -134 5 -96 -32 -148 -111 -155 -90 -8 -147 50
-150 154 -1 49 3 68 20 95 38 56 103 72 167 40z"/>
<path d="M1300 720 c-49 -9 -75 -25 -105 -64 -64 -83 -36 -204 58 -252 36 -19
122 -29 170 -20 28 5 36 13 44 41 6 20 7 35 2 35 -5 0 -9 -4 -9 -10 0 -20 -45
-50 -74 -50 -145 0 -229 143 -153 258 24 36 50 46 117 45 60 -1 100 -18 100
-42 0 -11 5 -23 10 -26 6 -4 10 10 10 34 0 34 -4 41 -22 46 -44 9 -113 12
-148 5z"/>
<path d="M326 710 c20 -8 21 -15 20 -153 -1 -93 -5 -149 -13 -158 -9 -12 -2
-14 44 -14 43 -1 51 1 34 9 -16 7 -21 18 -22 50 0 23 -1 56 -2 74 -1 17 0 32
2 32 1 0 39 -36 82 -80 44 -44 85 -80 92 -80 6 -1 30 -3 52 -6 22 -4 36 -2 32
2 -5 5 -13 10 -18 10 -5 1 -13 2 -18 3 -13 1 -181 161 -181 171 0 14 120 125
148 137 26 12 25 12 -21 13 -30 0 -46 -4 -42 -10 4 -6 -22 -40 -56 -75 -63
-66 -76 -69 -73 -18 1 15 3 42 3 60 1 21 7 33 19 36 9 3 -10 5 -43 5 -42 1
-54 -2 -39 -8z"/>
<path d="M1608 710 c22 -9 23 -13 21 -152 0 -105 -4 -147 -14 -158 -12 -13 -7
-15 41 -15 30 0 54 3 54 8 0 4 -9 7 -20 7 -18 0 -20 7 -20 80 l0 80 98 0 98 0
-1 -77 c0 -52 -4 -78 -12 -81 -29 -9 -9 -17 45 -18 46 -1 53 1 35 9 -22 10
-23 14 -23 157 0 100 4 150 12 158 9 9 0 12 -42 11 -30 -1 -47 -3 -37 -6 20
-5 19 -1 22 -75 l2 -58 -99 0 -98 0 0 60 c0 46 4 61 18 69 13 8 2 10 -43 10
-47 0 -55 -2 -37 -9z"/>
<path d="M2094 704 c13 -12 16 -39 14 -142 0 -74 -6 -138 -13 -152 -11 -26
-11 -26 36 -25 27 0 52 4 56 9 4 4 4 7 -2 6 -33 -7 -35 0 -35 150 0 131 2 150
18 159 13 8 5 10 -36 11 -48 0 -52 -1 -38 -16z"/>
<path d="M791 251 c-21 -14 -6 -39 26 -43 37 -4 30 -24 -8 -20 -34 2 -37 -3
-10 -18 14 -7 27 -7 44 1 33 15 24 46 -14 54 -16 4 -27 11 -24 15 3 5 16 5 30
0 14 -5 25 -6 25 -1 0 19 -46 27 -69 12z"/>
<path d="M875 250 c3 -5 13 -10 21 -10 9 0 14 -11 14 -35 0 -19 4 -35 10 -35
5 0 8 16 6 35 -2 28 1 35 16 35 10 0 18 5 18 10 0 6 -21 10 -46 10 -27 0 -43
-4 -39 -10z"/>
<path d="M980 241 c-16 -30 -12 -48 12 -65 28 -20 33 -20 52 0 22 21 20 61 -3
74 -29 15 -49 12 -61 -9z m64 -16 c5 -14 -18 -45 -34 -45 -13 0 -28 32 -23 48
6 17 50 15 57 -3z"/>
<path d="M1096 241 c-35 -38 19 -97 61 -66 10 8 14 17 9 22 -5 4 -11 2 -13 -4
-7 -20 -41 -15 -48 7 -9 30 4 43 36 36 30 -6 40 8 13 18 -26 10 -40 7 -58 -13z"/>
<path d="M1200 216 c0 -25 5 -46 10 -46 6 0 10 9 10 20 0 11 4 20 10 20 5 0
14 -9 20 -20 6 -11 18 -20 28 -20 10 0 13 3 7 8 -5 4 -16 15 -24 25 -12 15
-11 20 4 37 24 26 5 26 -23 0 -17 -16 -22 -17 -22 -6 0 8 -4 18 -10 21 -6 4
-10 -12 -10 -39z"/>
<path d="M1310 216 c0 -25 5 -46 10 -46 6 0 10 8 8 18 -2 11 4 18 20 20 17 3
22 -2 22 -17 0 -12 4 -21 9 -21 10 0 9 76 -2 86 -4 4 -7 0 -7 -8 0 -9 -6 -18
-12 -20 -18 -7 -39 2 -33 12 3 5 1 11 -5 15 -6 4 -10 -11 -10 -39z"/>
<path d="M1428 243 c-8 -10 -13 -24 -12 -30 1 -7 2 -17 3 -23 0 -5 10 -14 21
-20 44 -23 88 34 54 71 -21 24 -46 24 -66 2z m60 -29 c4 -27 -26 -40 -46 -20
-21 20 -8 48 20 44 14 -2 24 -11 26 -24z"/>
<path d="M1539 249 c-7 -85 -8 -81 26 -81 35 0 46 3 41 11 -3 4 -17 7 -31 5
-24 -2 -26 0 -23 31 1 19 -1 37 -5 41 -4 4 -8 1 -8 -7z"/>
<path d="M1630 215 c0 -25 5 -45 10 -45 6 0 10 6 9 13 -4 33 1 41 15 21 15
-19 15 -19 30 1 15 19 15 19 16 -7 0 -16 4 -28 8 -28 7 0 8 14 2 80 0 10 -8 6
-23 -13 l-23 -28 -14 26 c-20 37 -30 31 -30 -20z"/>
</g>
</svg>
